#!OML:ASF F:\VICON\USERDATA\INSTALL\rory3\rory3.ASF
:FULLY-SPECIFIED
:DEGREES
72
root 1.1873294029012857 17.88520769790394 45.25480136902019 -4.026202097741982 0.9987360720173006 0.6690003296706672
lfemur 4.704134142909723 -3.6859536715516894 -24.873722641349783
ltibia 22.068929612098863
lfoot -2.456650383051568 -6.172911012325935
ltoes -12.210696240001887
rfemur -26.625674716669156 -1.3365910409804123 20.5914229137651
rtibia 54.40377080819043
rfoot -5.420565149601636 -3.7999602266158155
rtoes 2.7358770428382355
lowerback 10.762279568265004 -0.8854837090713451 -2.466251531008332
upperback -0.039962456868805306 -1.5271251708673061 1.240140445890506
thorax -5.999119171825249 -0.7028980045861127 3.2142536690994596
lowerneck -16.86269780733859 -3.3254296040209432 -1.7100972124238574
upperneck 21.79195011800611 -4.513937505384176 1.9496118404388174
head 9.861857837927946 -2.063766446968022 0.4302101011211765
lclavicle -2.5055648417754407e-15 -2.7318697439414737e-15
lhumerus -25.259686532450743 -1.4033034193686738 80.72216364496022
lradius 28.52247806868148
lwrist 8.098446107610314
lhand -29.195171383829184 19.31480791852957
lfingers nan
lthumb -2.6158838573476495 49.34619307040113
rclavicle -2.4875347098752684e-15 -2.7224451662507626e-15
rhumerus -33.83869274101266 -21.518574055965765 -79.03446122464503
rradius 29.966497091389403
rwrist 1.7419099086629108
rhand -17.66374924442972 21.863152000201946
rfingers nan
rthumb 8.325487918192104 -7.814406193949978
73
root 1.1862691086046864 17.849466481579263 45.76341211063185 -4.4556832580435 0.8055398142192849 1.4607012330979017
lfemur 7.175836043083699 -3.7806743278139257 -25.71303899734913
ltibia 21.172256221002954
lfoot -1.7777409909461772 -6.794221838152527
ltoes -10.443693810162824
rfemur -26.79132280196727 -1.4043462400637523 19.89045661012854
rtibia 50.239969638595795
rfoot -5.3695420139420955 -3.47650154953244
rtoes 3.1532176608146547
lowerback 10.78911862922689 -1.0090832436489685 -3.193526479060825
upperback -0.029318269174780337 -1.7731691200964879 1.324891518942204
thorax -5.9515478219702915 -0.8220304508051018 3.508114948485148
lowerneck -16.796874617599926 -3.1970280461238128 -1.8101102639592583
upperneck 22.02073732753027 -4.259037655043876 1.7720220217327194
head 9.919395028440263 -1.9783446171873276 0.4287970958506253
lclavicle -2.5067892981639594e-15 -2.731046828862011e-15
lhumerus -25.65939906485555 -1.2895078517452014 80.90730994443169
lradius 27.397286731792388
lwrist 8.370707027686452
lhand -29.16957026062223 19.341308205389318
lfingers nan
lthumb -2.5659001069070575 49.365445917186555
rclavicle -2.485576151603359e-15 -2.7201451458683934e-15
rhumerus -34.32031354355714 -21.917259300856063 -78.54551514228673
rradius 30.338541390266478
rwrist 1.7003931176647353
rhand -17.687785245634625 21.82781036156266
rfingers nan
rthumb 8.348212487302835 -7.777997255183244
74
root 1.2006641249495673 17.823929236106625 47.62960712372853 -4.395684579142048 0.9641650188766908 1.5170182225302162
lfemur 8.478824369283808 -4.040778612581149 -25.84477970438049
ltibia 21.63341470493684
lfoot -1.5567899402929006 -7.006621961410806
ltoes -9.911632820010542
rfemur -26.86820806772399 -1.4972078061409877 19.889648303155262
rtibia 45.826429819356214
rfoot -5.588983265709859 -3.3997378825513165
rtoes 3.5725301869933825
lowerback 10.78756393743493 -1.2602310530646337 -3.281370473979001
upperback -0.0686441453552496 -2.014684512768229 1.5104661480575854
thorax -5.961514441240202 -0.9458439420996553 3.7003901652004405
lowerneck -16.709161965656985 -3.0780106173016835 -1.9058238468666608
upperneck 22.241593364564416 -4.018872471060091 1.5746765279890103
head 9.969881509610854 -1.9019078164999297 0.4151899177546283
lclavicle -2.507770480871424e-15 -2.730605711068606e-15
lhumerus -26.10344303654987 -1.1105879678674921 81.14949724592945
lradius 26.05734578131149
lwrist 8.657030444793302
lhand -29.17937034652809 19.275998419411554
lfingers nan
lthumb -2.5180888444473566 49.33402004563014
rclavicle -2.485040082964731e-15 -2.7190695036578884e-15
rhumerus -34.643499235639354 -22.323144148462145 -77.96784231109821
rradius 30.719226727112012
rwrist 1.8316130946959208
rhand -17.668363002332637 21.878620377724207
rfingers nan
rthumb 8.365058033200496 -7.762198392269588
75
root 1.21126043862214 17.807387503212606 48.66261944412008 -4.267559219592102 0.9202686450806654 1.5535242163648229
lfemur 9.302827864647357 -4.169609940192665 -25.82227983772374
ltibia 23.20349144128962
lfoot -1.3947288932163548 -6.844878558489243
ltoes -8.319247951406709
rfemur -26.850852493886734 -1.4464342088300945 19.791494546021674
rtibia 41.53614675743667
rfoot -5.988295433260637 -3.7396575942436376
rtoes 3.917084577329595
lowerback 10.806717604917223 -1.4381577012668862 -3.3300777034095086
upperback -0.10523452972818588 -2.2746474343906766 1.5920761029443062
thorax -5.94905234058747 -1.0885507019500211 3.8516646987104153
lowerneck -16.648801101227665 -2.993862845650492 -1.9779929341514217
upperneck 22.413440432251328 -3.839709813627109 1.3925723818598799
head 10.007246361190816 -1.8489637420364882 0.3914084304148925
lclavicle -2.508084856585454e-15 -2.7301689887004204e-15
lhumerus -26.569043857671225 -0.8892849639286893 81.42345582222637
lradius 24.645156270908824
lwrist 9.015242708509712
lhand -29.203029547361083 19.156773729185804
lfingers nan
lthumb -2.5095895243701394 49.19492567039874
rclavicle -2.4851797081614886e-15 -2.718666599691021e-15
rhumerus -34.83984163595624 -22.762809741446514 -77.3976745817349
rradius 31.07001358057255
rwrist 2.106675693423203
rhand -17.67961495814315 21.8637988866158
rfingers nan
rthumb 8.371176976290375 -7.775815760158411
76
root 1.2265716891125162 17.796151571294406 49.49059618223789 -4.242682032196755 0.7054644132623368 1.9862876874287028
lfemur 9.772469494847302 -4.1488915125302 -25.917326561042522
ltibia 25.461530887514893
lfoot -1.7788237483920817 -7.008039379581254
ltoes -7.604578577447102
rfemur -26.10865860118159 -1.5382912487842062 19.704309679257616
rtibia 37.53043008363979
rfoot -6.500411117780081 -4.684254424102329
rtoes 4.2217595561145185
lowerback 10.784526430600925 -1.5814093514995347 -3.6557545110870135
upperback -0.08472516492430188 -2.56733158605801 1.5563268428884842
thorax -5.84579224176149 -1.2068972800872504 4.102970993486236
lowerneck -16.618802076622277 -2.9450379732196246 -2.050511215213337
upperneck 22.494869683446645 -3.7316812433937283 1.2510253445111224
head 10.019967886990097 -1.820917539115393 0.3644261406442405
lclavicle -2.5099109886971237e-15 -2.73079284850514e-15
lhumerus -27.07780918791007 -0.5987789870595104 81.71098231520709
lradius 23.342559482888046
lwrist 9.481122437526528
lhand -29.2302595414124 19.0990175358532
lfingers nan
lthumb -2.5196715354389396 49.11547131577027
rclavicle -2.4850928844996498e-15 -2.7182612444996507e-15
rhumerus -34.88823213063772 -23.201706416366374 -76.88916220537256
rradius 31.34927882982206
rwrist 2.463973817441077
rhand -17.656277809507372 21.90095140589867
rfingers nan
rthumb 8.385594823888313 -7.788849054822538
